# Blender v2.82 (sub 7) OBJ File: 'test.blend'
# www.blender.org
mtllib test.mtl
o Plane
v 0.402338 0.144790 0.000000
v -0.393985 0.144790 0.000000
v 0.398162 0.398162 0.000000
v -0.398162 0.398162 0.000000
v 1.282778 0.029644 0.000000
v 1.282778 0.284563 0.000000
v -1.257951 0.087439 0.000000
v -1.253774 0.344988 0.000000
v 0.387285 -1.490397 0.000000
v -0.409038 -1.490397 0.000000
v 0.395439 -0.671627 0.000000
v -0.400885 -0.671627 0.000000
v 0.079632 -0.398162 0.000000
v 0.079632 0.398162 0.000000
v 0.068756 -1.490397 0.000000
v 0.076909 -0.671627 0.000000
v -0.082045 -0.398162 0.000000
v -0.092922 -1.490397 0.000000
v -0.084769 -0.671627 0.000000
v -0.082045 0.398162 0.000000
v 0.395745 1.062832 0.000000
v -0.400579 1.062832 0.000000
v 0.077215 1.062832 0.000000
v -0.084462 1.062832 0.000000
v 0.402338 0.144790 -0.186879
v -0.393985 0.144790 -0.186879
v 0.398162 0.398162 -0.186879
v -0.398162 0.398162 -0.186879
v 1.282778 0.029644 -0.186879
v 1.282778 0.284563 -0.186879
v -1.257951 0.087439 -0.186879
v -1.253774 0.344988 -0.186879
v 0.387285 -1.490397 -0.186879
v -0.409038 -1.490397 -0.186879
v 0.395439 -0.671627 -0.186879
v -0.400885 -0.671627 -0.186879
v 0.079632 -0.398162 -0.186879
v 0.079632 0.398162 -0.186879
v 0.068756 -1.490397 -0.186879
v 0.076909 -0.671627 -0.186879
v -0.082045 -0.398162 -0.186879
v -0.092922 -1.490397 -0.186879
v -0.084769 -0.671627 -0.186879
v -0.082045 0.398162 -0.186879
v 0.395745 1.062832 -0.186879
v -0.400579 1.062832 -0.186879
v 0.077215 1.062832 -0.186879
v -0.084462 1.062832 -0.186879
vt 1.000000 0.000000
vt 0.603030 0.000000
vt 0.603030 1.000000
vt 0.000000 0.000000
vt 0.000000 0.000000
vt 0.000000 1.000000
vt 1.000000 1.000000
vt 1.000000 1.000000
vt 0.400000 0.000000
vt 0.400000 0.000000
vt 0.000000 0.000000
vt 0.400000 0.000000
vt 0.000000 0.000000
vt 0.603030 0.000000
vt 0.000000 1.000000
vt 0.400000 1.000000
vt 1.000000 0.000000
vt 1.000000 0.000000
vt 0.603030 0.000000
vt 0.603030 1.000000
vt 0.400000 1.000000
vt 0.000000 1.000000
vt 1.000000 0.000000
vt 1.000000 1.000000
vt 1.000000 0.000000
vt 0.603030 1.000000
vt 0.603030 0.000000
vt 0.000000 0.000000
vt 0.000000 1.000000
vt 0.000000 0.000000
vt 1.000000 1.000000
vt 1.000000 1.000000
vt 0.400000 0.000000
vt 0.000000 0.000000
vt 0.400000 0.000000
vt 0.400000 0.000000
vt 0.000000 0.000000
vt 0.603030 0.000000
vt 0.400000 1.000000
vt 0.000000 1.000000
vt 1.000000 0.000000
vt 0.603030 0.000000
vt 1.000000 0.000000
vt 0.603030 1.000000
vt 0.400000 1.000000
vt 0.000000 1.000000
vt 1.000000 0.000000
vt 1.000000 1.000000
vn 0.0000 0.0000 1.0000
vn 0.0000 0.0000 -1.0000
vn -1.0000 0.0085 0.0000
vn 0.1274 0.9919 0.0000
vn 1.0000 0.0036 0.0000
vn 1.0000 -0.0085 0.0000
vn -0.1297 -0.9916 0.0000
vn -1.0000 0.0100 0.0000
vn 0.0000 1.0000 0.0000
vn -0.9999 0.0162 0.0000
vn 0.0662 -0.9978 0.0000
vn -0.0620 0.9981 0.0000
vn 0.0000 -1.0000 0.0000
vn -1.0000 -0.0036 0.0000
vn 1.0000 -0.0100 0.0000
vn 1.0000 0.0000 0.0000
usemtl None
s off
f 2/1/1 17/2/1 20/3/1
f 1/4/1 5/5/1 6/6/1
f 2/1/1 4/7/1 8/8/1
f 16/9/1 15/10/1 9/11/1
f 13/12/1 16/9/1 11/13/1
f 17/2/1 19/14/1 16/9/1
f 1/4/1 3/15/1 14/16/1
f 12/17/1 10/18/1 18/19/1
f 17/2/1 2/1/1 12/17/1
f 17/2/1 13/12/1 14/16/1
f 4/7/1 20/3/1 24/20/1
f 20/3/1 14/16/1 23/21/1
f 14/16/1 3/15/1 21/22/1
f 2/1/1 20/3/1 4/7/1
f 1/4/1 6/6/1 3/15/1
f 2/1/1 8/8/1 7/23/1
f 16/9/1 9/11/1 11/13/1
f 13/12/1 11/13/1 1/4/1
f 17/2/1 16/9/1 13/12/1
f 1/4/1 14/16/1 13/12/1
f 12/17/1 18/19/1 19/14/1
f 17/2/1 12/17/1 19/14/1
f 17/2/1 14/16/1 20/3/1
f 4/7/1 24/20/1 22/24/1
f 20/3/1 23/21/1 24/20/1
f 14/16/1 21/22/1 23/21/1
f 26/25/2 44/26/2 41/27/2
f 25/28/2 30/29/2 29/30/2
f 26/25/2 32/31/2 28/32/2
f 40/33/2 33/34/2 39/35/2
f 37/36/2 35/37/2 40/33/2
f 41/27/2 40/33/2 43/38/2
f 25/28/2 38/39/2 27/40/2
f 36/41/2 42/42/2 34/43/2
f 41/27/2 36/41/2 26/25/2
f 41/27/2 38/39/2 37/36/2
f 28/32/2 48/44/2 44/26/2
f 44/26/2 47/45/2 38/39/2
f 38/39/2 45/46/2 27/40/2
f 26/25/2 28/32/2 44/26/2
f 25/28/2 27/40/2 30/29/2
f 26/25/2 31/47/2 32/31/2
f 40/33/2 35/37/2 33/34/2
f 37/36/2 25/28/2 35/37/2
f 41/27/2 37/36/2 40/33/2
f 25/28/2 37/36/2 38/39/2
f 36/41/2 43/38/2 42/42/2
f 41/27/2 43/38/2 36/41/2
f 41/27/2 44/26/2 38/39/2
f 28/32/2 46/48/2 48/44/2
f 44/26/2 48/44/2 47/45/2
f 38/39/2 47/45/2 45/46/2
f 2/1/3 36/41/3 12/17/3
f 6/6/4 27/40/4 3/15/4
f 3/15/5 45/46/5 21/22/5
f 11/13/6 25/28/6 1/4/6
f 1/4/7 29/30/7 5/5/7
f 16/9/8 39/35/8 15/10/8
f 12/17/8 34/43/8 10/18/8
f 21/22/9 47/45/9 23/21/9
f 8/8/10 31/47/10 7/23/10
f 23/21/9 48/44/9 24/20/9
f 7/23/11 26/25/11 2/1/11
f 24/20/9 46/48/9 22/24/9
f 4/7/12 32/31/12 8/8/12
f 19/14/13 40/33/13 16/9/13
f 22/24/14 28/32/14 4/7/14
f 10/18/13 42/42/13 18/19/13
f 15/10/13 33/34/13 9/11/13
f 9/11/15 35/37/15 11/13/15
f 18/19/15 43/38/15 19/14/15
f 5/5/16 30/29/16 6/6/16
f 2/1/3 26/25/3 36/41/3
f 6/6/4 30/29/4 27/40/4
f 3/15/5 27/40/5 45/46/5
f 11/13/6 35/37/6 25/28/6
f 1/4/7 25/28/7 29/30/7
f 16/9/8 40/33/8 39/35/8
f 12/17/8 36/41/8 34/43/8
f 21/22/9 45/46/9 47/45/9
f 8/8/10 32/31/10 31/47/10
f 23/21/9 47/45/9 48/44/9
f 7/23/11 31/47/11 26/25/11
f 24/20/9 48/44/9 46/48/9
f 4/7/12 28/32/12 32/31/12
f 19/14/13 43/38/13 40/33/13
f 22/24/14 46/48/14 28/32/14
f 10/18/13 34/43/13 42/42/13
f 15/10/13 39/35/13 33/34/13
f 9/11/15 33/34/15 35/37/15
f 18/19/15 42/42/15 43/38/15
f 5/5/16 29/30/16 30/29/16
